<svg width="1169" height="545" viewBox="0 0 1169 545" fill="none" xmlns="http://www.w3.org/2000/svg">
<rect width="1169" height="545" fill="white"/>
<rect y="226" width="1169" height="319" fill="#F4F4F4"/>
<path d="M101.584 397.664C81.488 397.664 71.12 384.736 70.736 371.04H80.336C81.232 380.896 86.992 389.472 101.2 389.472C113.744 389.472 122.704 381.664 122.704 366.048C122.704 351.456 114.256 345.312 102.352 345.312C93.008 345.312 85.968 349.28 82 354.656H72.016L81.36 307.552H127.824V315.744H88.912L82.896 345.312V345.568C87.76 340.064 95.056 337.12 104.4 337.12C121.296 337.12 132.432 349.664 132.432 366.048C132.432 384.992 119.376 397.664 101.584 397.664ZM160.418 355.936C146.722 355.936 140.322 344.672 140.322 331.232C140.322 317.664 146.594 306.4 160.418 306.4C173.986 306.4 180.386 317.664 180.386 331.232C180.386 344.672 174.242 355.936 160.418 355.936ZM166.562 396H157.986L208.29 307.808H216.738L166.562 396ZM160.418 348.896C168.994 348.896 172.706 341.088 172.706 331.232C172.706 321.248 168.994 313.44 160.418 313.44C151.714 313.44 148.002 321.248 148.002 331.232C148.002 341.088 151.714 348.896 160.418 348.896ZM214.562 397.664C200.866 397.664 194.466 386.272 194.466 372.832C194.466 359.392 200.738 348 214.562 348C228.13 348 234.658 359.392 234.658 372.832C234.658 386.272 228.386 397.664 214.562 397.664ZM214.562 390.624C223.266 390.624 226.85 382.816 226.85 372.832C226.85 362.976 223.266 355.168 214.562 355.168C205.858 355.168 202.274 362.976 202.274 372.832C202.274 382.816 205.858 390.624 214.562 390.624Z" fill="#FF0000"/>
<path d="M68.98 452H67.52V437.7H77.08V438.98H68.98V444.04H75.66V445.32H68.98V452ZM82.0283 452.28C78.9683 452.28 77.1283 450.08 77.1283 446.92C77.1283 443.74 78.9683 441.54 82.0283 441.54C85.0883 441.54 86.9283 443.74 86.9283 446.92C86.9283 450.08 85.0883 452.28 82.0283 452.28ZM82.0283 451.14C84.4083 451.14 85.5683 449.26 85.5683 446.92C85.5683 444.56 84.4083 442.68 82.0283 442.68C79.6483 442.68 78.4883 444.56 78.4883 446.92C78.4883 449.26 79.6483 451.14 82.0283 451.14ZM95.5625 448.24V441.8H96.8625V452H95.5625V450.56H95.5225C94.9425 451.4 93.8425 452.24 92.0225 452.24C90.2025 452.24 88.6825 451.22 88.6825 448.96V441.8H89.9825V448.68C89.9825 449.98 90.5825 451.1 92.3425 451.1C94.2825 451.1 95.5625 449.74 95.5625 448.24ZM104.11 441.56C105.93 441.56 107.45 442.58 107.45 444.84V452H106.15V445.12C106.15 443.82 105.55 442.7 103.79 442.7C101.85 442.7 100.57 444.06 100.57 445.56V452H99.2703V441.8H100.57V443.26H100.61C101.19 442.42 102.29 441.56 104.11 441.56ZM117.198 443.52V437.7H118.498V452H117.198V450.34H117.158C116.578 451.34 115.498 452.26 113.718 452.26C111.238 452.26 109.238 450.26 109.238 446.9C109.238 443.56 111.238 441.56 113.718 441.56C115.498 441.56 116.558 442.44 117.158 443.52H117.198ZM113.878 451.12C115.838 451.12 117.198 449.48 117.198 446.9C117.198 444.34 115.838 442.7 113.878 442.7C111.758 442.7 110.598 444.62 110.598 446.9C110.598 449.2 111.758 451.12 113.878 451.12ZM126.766 439.76H125.086V438.08H126.766V439.76ZM126.586 452H125.286V441.8H126.586V452ZM132.897 441.8V442.94H130.837V449.38C130.837 450.64 131.117 450.94 132.117 450.94C132.437 450.94 132.597 450.92 132.897 450.9V452C132.497 452.06 132.257 452.08 131.937 452.08C130.457 452.08 129.537 451.58 129.537 449.36V442.94H128.037V441.8H129.537V438.4H130.837V441.8H132.897ZM147.878 446.44C147.878 446.72 147.878 447 147.858 447.16H139.778C139.798 449.22 140.898 451.16 143.298 451.16C145.398 451.16 146.218 449.72 146.418 448.88H147.738C147.238 450.74 145.838 452.28 143.278 452.28C140.158 452.28 138.418 450 138.418 446.9C138.418 443.64 140.338 441.54 143.278 441.54C146.218 441.54 147.878 443.6 147.878 446.44ZM139.778 446.02H146.498C146.498 444.2 145.318 442.66 143.218 442.66C141.238 442.66 139.878 444.12 139.778 446.02ZM152.5 452.26C150.46 452.26 149.16 451.12 149.16 449.42C149.16 447.22 150.72 446.52 153.36 446.06C155.04 445.76 156.12 445.64 156.12 444.42C156.12 443.38 155.44 442.68 153.8 442.68C151.82 442.68 151.12 443.38 151.02 444.88H149.64C149.74 443.08 150.88 441.54 153.84 441.54C155.72 441.54 157.38 442.34 157.38 444.78V449.88C157.38 450.7 157.5 451.08 157.96 451.08C158.04 451.08 158.12 451.08 158.24 451.06V452C158.02 452.04 157.8 452.08 157.56 452.08C156.7 452.08 156.2 451.74 156.12 450.46H156.08C155.38 451.62 154.16 452.26 152.5 452.26ZM152.66 451.12C154.74 451.12 156.12 450.02 156.12 448.18V446.28C155.82 446.7 154.74 446.94 153.52 447.14C151.54 447.5 150.52 448 150.52 449.3C150.52 450.48 151.18 451.12 152.66 451.12ZM163.714 452.26C160.854 452.26 159.294 450.7 159.234 448.66H160.594C160.674 450.06 161.594 451.12 163.734 451.12C165.674 451.12 166.334 450.22 166.334 449.22C166.334 447.72 164.814 447.56 163.394 447.22C161.514 446.74 159.614 446.28 159.614 444.3C159.614 442.64 160.934 441.56 163.234 441.56C165.894 441.56 167.134 442.98 167.314 444.66H165.954C165.774 443.76 165.234 442.7 163.254 442.7C161.794 442.7 160.974 443.26 160.974 444.22C160.974 445.5 162.354 445.68 163.894 446.06C165.814 446.52 167.714 447.06 167.714 449.18C167.714 451.04 166.234 452.26 163.714 452.26ZM170.053 455.58C169.733 455.58 169.493 455.56 169.073 455.5V454.38C169.373 454.42 169.533 454.44 169.853 454.44C170.813 454.44 171.593 453.82 172.153 451.94L168.033 441.8H169.473L172.793 450.3H172.833L175.993 441.8H177.393L173.313 452.3C172.313 454.84 171.413 455.58 170.053 455.58ZM179.031 452H177.351V450.32H179.031V452Z" fill="#7F7F7F"/>
<path d="M441.584 397.664C421.488 397.664 411.12 384.736 410.736 371.04H420.336C421.232 380.896 426.992 389.472 441.2 389.472C453.744 389.472 462.704 381.664 462.704 366.048C462.704 351.456 454.256 345.312 442.352 345.312C433.008 345.312 425.968 349.28 422 354.656H412.016L421.36 307.552H467.824V315.744H428.912L422.896 345.312V345.568C427.76 340.064 435.056 337.12 444.4 337.12C461.296 337.12 472.432 349.664 472.432 366.048C472.432 384.992 459.376 397.664 441.584 397.664ZM501.954 396H492.226C492.226 367.968 507.97 332.896 527.81 316V315.744H478.274V307.552H538.434V314.72C514.882 333.792 501.954 368.992 501.954 396ZM564.543 355.936C550.847 355.936 544.447 344.672 544.447 331.232C544.447 317.664 550.719 306.4 564.543 306.4C578.111 306.4 584.511 317.664 584.511 331.232C584.511 344.672 578.367 355.936 564.543 355.936ZM570.687 396H562.111L612.415 307.808H620.863L570.687 396ZM564.543 348.896C573.119 348.896 576.831 341.088 576.831 331.232C576.831 321.248 573.119 313.44 564.543 313.44C555.839 313.44 552.127 321.248 552.127 331.232C552.127 341.088 555.839 348.896 564.543 348.896ZM618.687 397.664C604.991 397.664 598.591 386.272 598.591 372.832C598.591 359.392 604.863 348 618.687 348C632.255 348 638.783 359.392 638.783 372.832C638.783 386.272 632.511 397.664 618.687 397.664ZM618.687 390.624C627.391 390.624 630.975 382.816 630.975 372.832C630.975 362.976 627.391 355.168 618.687 355.168C609.983 355.168 606.399 362.976 606.399 372.832C606.399 382.816 609.983 390.624 618.687 390.624Z" fill="black"/>
<path d="M408.98 452H407.52V437.7H417.08V438.98H408.98V444.04H415.66V445.32H408.98V452ZM422.028 452.28C418.968 452.28 417.128 450.08 417.128 446.92C417.128 443.74 418.968 441.54 422.028 441.54C425.088 441.54 426.928 443.74 426.928 446.92C426.928 450.08 425.088 452.28 422.028 452.28ZM422.028 451.14C424.408 451.14 425.568 449.26 425.568 446.92C425.568 444.56 424.408 442.68 422.028 442.68C419.648 442.68 418.488 444.56 418.488 446.92C418.488 449.26 419.648 451.14 422.028 451.14ZM435.563 448.24V441.8H436.863V452H435.563V450.56H435.523C434.943 451.4 433.843 452.24 432.023 452.24C430.202 452.24 428.683 451.22 428.683 448.96V441.8H429.983V448.68C429.983 449.98 430.583 451.1 432.343 451.1C434.283 451.1 435.563 449.74 435.563 448.24ZM444.11 441.56C445.93 441.56 447.45 442.58 447.45 444.84V452H446.15V445.12C446.15 443.82 445.55 442.7 443.79 442.7C441.85 442.7 440.57 444.06 440.57 445.56V452H439.27V441.8H440.57V443.26H440.61C441.19 442.42 442.29 441.56 444.11 441.56ZM457.198 443.52V437.7H458.498V452H457.198V450.34H457.158C456.578 451.34 455.498 452.26 453.718 452.26C451.238 452.26 449.238 450.26 449.238 446.9C449.238 443.56 451.238 441.56 453.718 441.56C455.498 441.56 456.558 442.44 457.158 443.52H457.198ZM453.878 451.12C455.838 451.12 457.198 449.48 457.198 446.9C457.198 444.34 455.838 442.7 453.878 442.7C451.758 442.7 450.598 444.62 450.598 446.9C450.598 449.2 451.758 451.12 453.878 451.12ZM466.766 439.76H465.086V438.08H466.766V439.76ZM466.586 452H465.286V441.8H466.586V452ZM472.897 441.8V442.94H470.837V449.38C470.837 450.64 471.117 450.94 472.117 450.94C472.437 450.94 472.597 450.92 472.897 450.9V452C472.497 452.06 472.257 452.08 471.937 452.08C470.457 452.08 469.537 451.58 469.537 449.36V442.94H468.037V441.8H469.537V438.4H470.837V441.8H472.897ZM484.398 452H479.278V437.7H484.458C488.458 437.7 490.678 440.46 490.678 444.88C490.678 449.3 488.398 452 484.398 452ZM480.738 450.72H484.398C487.978 450.72 489.158 448.04 489.158 444.88C489.158 441.7 488.038 438.98 484.438 438.98H480.738V450.72ZM494.09 439.76H492.41V438.08H494.09V439.76ZM493.91 452H492.61V441.8H493.91V452ZM498.222 452H496.922V442.94H495.482V441.8H496.922V440.3C496.922 438.08 497.802 437.58 499.262 437.58C499.542 437.58 499.782 437.6 500.242 437.66V438.76C499.882 438.74 499.722 438.72 499.442 438.72C498.462 438.72 498.222 439.02 498.222 440.28V441.8H501.682V440.3C501.682 438.08 502.562 437.58 504.022 437.58C504.302 437.58 504.542 437.6 505.002 437.66V438.76C504.642 438.74 504.482 438.72 504.202 438.72C503.222 438.72 502.982 439.02 502.982 440.28V441.8H505.002V442.94H502.982V452H501.682V442.94H498.222V452ZM507.842 439.76H506.162V438.08H507.842V439.76ZM507.642 452H506.342V441.8H507.642V452ZM514.352 452.26C511.432 452.26 509.472 450.1 509.472 446.9C509.472 443.72 511.432 441.56 514.352 441.56C516.832 441.56 518.512 443.22 518.732 445.38H517.372C517.292 444.24 516.472 442.7 514.352 442.7C511.852 442.7 510.832 444.82 510.832 446.9C510.832 449 511.852 451.14 514.352 451.14C516.492 451.14 517.292 449.6 517.372 448.36H518.732C518.592 450.56 516.832 452.26 514.352 452.26ZM527.281 448.24V441.8H528.581V452H527.281V450.56H527.241C526.661 451.4 525.561 452.24 523.741 452.24C521.921 452.24 520.401 451.22 520.401 448.96V441.8H521.701V448.68C521.701 449.98 522.301 451.1 524.061 451.1C526.001 451.1 527.281 449.74 527.281 448.24ZM532.289 452H530.989V437.7H532.289V452ZM538.6 441.8V442.94H536.54V449.38C536.54 450.64 536.82 450.94 537.82 450.94C538.14 450.94 538.3 450.92 538.6 450.9V452C538.2 452.06 537.96 452.08 537.64 452.08C536.16 452.08 535.24 451.58 535.24 449.36V442.94H533.74V441.8H535.24V438.4H536.54V441.8H538.6ZM541.746 452H540.066V450.32H541.746V452Z" fill="#7F7F7F"/>
<path d="M848.656 397.664C827.152 397.664 814.608 386.016 814.608 366.432H824.336C824.336 380 830.992 389.472 848.016 389.472C863.376 389.472 869.52 382.56 869.52 371.552C869.52 358.112 859.28 353.888 850.192 353.888H840.72V345.696H849.68C859.28 345.696 866.192 340.448 866.192 329.824C866.192 321.888 861.2 314.08 848.528 314.08C830.736 314.08 826.768 324.192 826.768 333.664H817.04C817.04 317.792 827.408 305.888 848.528 305.888C862.992 305.888 875.92 314.592 875.92 329.824C875.92 339.68 871.056 345.568 862.096 349.152V349.408C874 353.12 879.248 361.056 879.248 371.552C879.248 388.192 866.96 397.664 848.656 397.664ZM922.635 397.664C904.715 397.664 890.251 388.704 890.251 371.296C890.251 359.008 898.187 352.48 907.275 348.768V348.512C900.491 345.184 894.603 339.296 894.603 329.312C894.603 314.464 906.379 305.888 922.635 305.888C938.891 305.888 950.667 314.464 950.667 329.312C950.667 339.296 944.779 345.184 937.995 348.512V348.768C946.955 352.48 955.019 359.008 955.019 371.296C955.019 388.704 940.555 397.664 922.635 397.664ZM922.635 344.544C933.643 344.544 940.939 339.552 940.939 329.312C940.939 319.072 933.643 314.08 922.635 314.08C911.627 314.08 904.331 319.072 904.331 329.312C904.331 339.552 911.627 344.544 922.635 344.544ZM922.635 389.472C936.075 389.472 945.291 382.816 945.291 370.912C945.291 359.392 936.075 352.736 922.635 352.736C909.195 352.736 899.979 359.392 899.979 370.912C899.979 382.816 909.195 389.472 922.635 389.472ZM983.543 355.936C969.847 355.936 963.447 344.672 963.447 331.232C963.447 317.664 969.719 306.4 983.543 306.4C997.111 306.4 1003.51 317.664 1003.51 331.232C1003.51 344.672 997.367 355.936 983.543 355.936ZM989.687 396H981.111L1031.42 307.808H1039.86L989.687 396ZM983.543 348.896C992.119 348.896 995.831 341.088 995.831 331.232C995.831 321.248 992.119 313.44 983.543 313.44C974.839 313.44 971.127 321.248 971.127 331.232C971.127 341.088 974.839 348.896 983.543 348.896ZM1037.69 397.664C1023.99 397.664 1017.59 386.272 1017.59 372.832C1017.59 359.392 1023.86 348 1037.69 348C1051.26 348 1057.78 359.392 1057.78 372.832C1057.78 386.272 1051.51 397.664 1037.69 397.664ZM1037.69 390.624C1046.39 390.624 1049.98 382.816 1049.98 372.832C1049.98 362.976 1046.39 355.168 1037.69 355.168C1028.98 355.168 1025.4 362.976 1025.4 372.832C1025.4 382.816 1028.98 390.624 1037.69 390.624Z" fill="black"/>
<path d="M815.54 452H813.94L810.34 437.7H811.88L814.8 449.92H814.84L818.2 437.7H819.82L823.18 449.92H823.24L826.16 437.7H827.68L824.1 452H822.48L819.04 439.42H818.98L815.54 452ZM837.347 446.44C837.347 446.72 837.347 447 837.327 447.16H829.247C829.267 449.22 830.367 451.16 832.767 451.16C834.867 451.16 835.687 449.72 835.887 448.88H837.207C836.707 450.74 835.307 452.28 832.747 452.28C829.627 452.28 827.887 450 827.887 446.9C827.887 443.64 829.807 441.54 832.747 441.54C835.687 441.54 837.347 443.6 837.347 446.44ZM829.247 446.02H835.967C835.967 444.2 834.787 442.66 832.687 442.66C830.707 442.66 829.347 444.12 829.247 446.02ZM843.409 441.56C843.769 441.56 844.049 441.58 844.289 441.62V442.9C844.089 442.86 843.869 442.84 843.669 442.84C841.829 442.84 840.469 444.32 840.469 446.3V452H839.169V441.8H840.469V443.88H840.509C841.029 442.54 841.969 441.56 843.409 441.56ZM854.026 446.44C854.026 446.72 854.026 447 854.006 447.16H845.926C845.946 449.22 847.046 451.16 849.446 451.16C851.546 451.16 852.366 449.72 852.566 448.88H853.886C853.386 450.74 851.986 452.28 849.426 452.28C846.306 452.28 844.566 450 844.566 446.9C844.566 443.64 846.486 441.54 849.426 441.54C852.366 441.54 854.026 443.6 854.026 446.44ZM845.926 446.02H852.646C852.646 444.2 851.466 442.66 849.366 442.66C847.386 442.66 846.026 444.12 845.926 446.02ZM865.063 441.56C866.883 441.56 868.403 442.58 868.403 444.84V452H867.103V445.12C867.103 443.82 866.503 442.7 864.743 442.7C862.803 442.7 861.523 444.06 861.523 445.56V452H860.223V441.8H861.523V443.26H861.563C862.143 442.42 863.243 441.56 865.063 441.56ZM879.651 446.44C879.651 446.72 879.651 447 879.631 447.16H871.551C871.571 449.22 872.671 451.16 875.071 451.16C877.171 451.16 877.991 449.72 878.191 448.88H879.511C879.011 450.74 877.611 452.28 875.051 452.28C871.931 452.28 870.191 450 870.191 446.9C870.191 443.64 872.111 441.54 875.051 441.54C877.991 441.54 879.651 443.6 879.651 446.44ZM871.551 446.02H878.271C878.271 444.2 877.091 442.66 874.991 442.66C873.011 442.66 871.651 444.12 871.551 446.02ZM888.273 448.24V441.8H889.573V452H888.273V450.56H888.233C887.653 451.4 886.553 452.24 884.733 452.24C882.913 452.24 881.393 451.22 881.393 448.96V441.8H882.693V448.68C882.693 449.98 883.293 451.1 885.053 451.1C886.993 451.1 888.273 449.74 888.273 448.24ZM895.901 441.8V442.94H893.841V449.38C893.841 450.64 894.121 450.94 895.121 450.94C895.441 450.94 895.601 450.92 895.901 450.9V452C895.501 452.06 895.261 452.08 894.941 452.08C893.461 452.08 892.541 451.58 892.541 449.36V442.94H891.041V441.8H892.541V438.4H893.841V441.8H895.901ZM901.827 441.56C902.187 441.56 902.467 441.58 902.707 441.62V442.9C902.507 442.86 902.287 442.84 902.087 442.84C900.247 442.84 898.887 444.32 898.887 446.3V452H897.587V441.8H898.887V443.88H898.927C899.447 442.54 900.387 441.56 901.827 441.56ZM906.461 452.26C904.421 452.26 903.121 451.12 903.121 449.42C903.121 447.22 904.681 446.52 907.321 446.06C909.001 445.76 910.081 445.64 910.081 444.42C910.081 443.38 909.401 442.68 907.761 442.68C905.781 442.68 905.081 443.38 904.981 444.88H903.601C903.701 443.08 904.841 441.54 907.801 441.54C909.681 441.54 911.341 442.34 911.341 444.78V449.88C911.341 450.7 911.461 451.08 911.921 451.08C912.001 451.08 912.081 451.08 912.201 451.06V452C911.981 452.04 911.761 452.08 911.521 452.08C910.661 452.08 910.161 451.74 910.081 450.46H910.041C909.341 451.62 908.121 452.26 906.461 452.26ZM906.621 451.12C908.701 451.12 910.081 450.02 910.081 448.18V446.28C909.781 446.7 908.701 446.94 907.481 447.14C905.501 447.5 904.481 448 904.481 449.3C904.481 450.48 905.141 451.12 906.621 451.12ZM915.234 452H913.934V437.7H915.234V452ZM926.341 452.28C923.281 452.28 921.441 450.08 921.441 446.92C921.441 443.74 923.281 441.54 926.341 441.54C929.401 441.54 931.241 443.74 931.241 446.92C931.241 450.08 929.401 452.28 926.341 452.28ZM926.341 451.14C928.721 451.14 929.881 449.26 929.881 446.92C929.881 444.56 928.721 442.68 926.341 442.68C923.961 442.68 922.801 444.56 922.801 446.92C922.801 449.26 923.961 451.14 926.341 451.14ZM937.315 441.56C937.675 441.56 937.955 441.58 938.195 441.62V442.9C937.995 442.86 937.775 442.84 937.575 442.84C935.735 442.84 934.375 444.32 934.375 446.3V452H933.075V441.8H934.375V443.88H934.415C934.935 442.54 935.875 441.56 937.315 441.56ZM946.625 438.72C945.645 438.72 945.405 439.02 945.405 440.28V441.8H947.425V442.94H945.405V452H944.105V442.94H942.665V441.8H944.105V440.3C944.105 438.08 944.985 437.58 946.445 437.58C946.725 437.58 946.965 437.6 947.425 437.66V438.76C947.065 438.74 946.905 438.72 946.625 438.72ZM952.806 452.28C949.746 452.28 947.906 450.08 947.906 446.92C947.906 443.74 949.746 441.54 952.806 441.54C955.866 441.54 957.706 443.74 957.706 446.92C957.706 450.08 955.866 452.28 952.806 452.28ZM952.806 451.14C955.186 451.14 956.346 449.26 956.346 446.92C956.346 444.56 955.186 442.68 952.806 442.68C950.426 442.68 949.266 444.56 949.266 446.92C949.266 449.26 950.426 451.14 952.806 451.14ZM966.34 448.24V441.8H967.64V452H966.34V450.56H966.3C965.72 451.4 964.62 452.24 962.8 452.24C960.98 452.24 959.46 451.22 959.46 448.96V441.8H960.76V448.68C960.76 449.98 961.36 451.1 963.12 451.1C965.06 451.1 966.34 449.74 966.34 448.24ZM974.888 441.56C976.708 441.56 978.228 442.58 978.228 444.84V452H976.928V445.12C976.928 443.82 976.328 442.7 974.568 442.7C972.628 442.7 971.348 444.06 971.348 445.56V452H970.048V441.8H971.348V443.26H971.388C971.968 442.42 973.068 441.56 974.888 441.56ZM987.975 443.52V437.7H989.275V452H987.975V450.34H987.935C987.355 451.34 986.275 452.26 984.495 452.26C982.015 452.26 980.015 450.26 980.015 446.9C980.015 443.56 982.015 441.56 984.495 441.56C986.275 441.56 987.335 442.44 987.935 443.52H987.975ZM984.655 451.12C986.615 451.12 987.975 449.48 987.975 446.9C987.975 444.34 986.615 442.7 984.655 442.7C982.535 442.7 981.375 444.62 981.375 446.9C981.375 449.2 982.535 451.12 984.655 451.12ZM997.543 439.76H995.863V438.08H997.543V439.76ZM997.363 452H996.063V441.8H997.363V452ZM1003.67 441.8V442.94H1001.61V449.38C1001.61 450.64 1001.89 450.94 1002.89 450.94C1003.21 450.94 1003.37 450.92 1003.67 450.9V452C1003.27 452.06 1003.03 452.08 1002.71 452.08C1001.23 452.08 1000.31 451.58 1000.31 449.36V442.94H998.815V441.8H1000.31V438.4H1001.61V441.8H1003.67ZM814.96 472.26C812.1 472.26 810.54 470.7 810.48 468.66H811.84C811.92 470.06 812.84 471.12 814.98 471.12C816.92 471.12 817.58 470.22 817.58 469.22C817.58 467.72 816.06 467.56 814.64 467.22C812.76 466.74 810.86 466.28 810.86 464.3C810.86 462.64 812.18 461.56 814.48 461.56C817.14 461.56 818.38 462.98 818.56 464.66H817.2C817.02 463.76 816.48 462.7 814.5 462.7C813.04 462.7 812.22 463.26 812.22 464.22C812.22 465.5 813.6 465.68 815.14 466.06C817.06 466.52 818.96 467.06 818.96 469.18C818.96 471.04 817.48 472.26 814.96 472.26ZM824.974 472.28C821.914 472.28 820.074 470.08 820.074 466.92C820.074 463.74 821.914 461.54 824.974 461.54C828.034 461.54 829.874 463.74 829.874 466.92C829.874 470.08 828.034 472.28 824.974 472.28ZM824.974 471.14C827.354 471.14 828.514 469.26 828.514 466.92C828.514 464.56 827.354 462.68 824.974 462.68C822.594 462.68 821.434 464.56 821.434 466.92C821.434 469.26 822.594 471.14 824.974 471.14ZM842.308 461.56C844.248 461.56 845.308 462.72 845.308 464.84V472H844.008V465.12C844.008 463.84 843.708 462.7 842.028 462.7C840.228 462.7 839.168 464.08 839.168 465.56V472H837.868V465.12C837.868 463.84 837.568 462.7 835.868 462.7C834.088 462.7 833.008 464.08 833.008 465.56V472H831.708V461.8H833.008V463.24H833.048C833.588 462.42 834.548 461.56 836.148 461.56C837.588 461.56 838.508 462.22 838.888 463.44H838.928C839.588 462.42 840.688 461.56 842.308 461.56ZM856.546 466.44C856.546 466.72 856.546 467 856.526 467.16H848.446C848.466 469.22 849.566 471.16 851.966 471.16C854.066 471.16 854.886 469.72 855.086 468.88H856.406C855.906 470.74 854.506 472.28 851.946 472.28C848.826 472.28 847.086 470 847.086 466.9C847.086 463.64 849.006 461.54 851.946 461.54C854.886 461.54 856.546 463.6 856.546 466.44ZM848.446 466.02H855.166C855.166 464.2 853.986 462.66 851.886 462.66C849.906 462.66 848.546 464.12 848.446 466.02ZM861.913 472H860.473L857.233 461.8H858.673L861.213 470.52H861.253L863.633 461.8H865.093L867.473 470.52H867.513L870.073 461.8H871.473L868.213 472H866.753L864.353 463.38H864.313L861.913 472ZM877.759 461.56C879.579 461.56 881.099 462.58 881.099 464.84V472H879.799V465.12C879.799 463.82 879.199 462.7 877.439 462.7C875.499 462.7 874.219 464.06 874.219 465.56V472H872.919V457.7H874.219V463.26H874.259C874.839 462.42 875.939 461.56 877.759 461.56ZM886.227 472.26C884.187 472.26 882.887 471.12 882.887 469.42C882.887 467.22 884.447 466.52 887.087 466.06C888.767 465.76 889.847 465.64 889.847 464.42C889.847 463.38 889.167 462.68 887.527 462.68C885.547 462.68 884.847 463.38 884.747 464.88H883.367C883.467 463.08 884.607 461.54 887.567 461.54C889.447 461.54 891.107 462.34 891.107 464.78V469.88C891.107 470.7 891.227 471.08 891.687 471.08C891.767 471.08 891.847 471.08 891.967 471.06V472C891.747 472.04 891.527 472.08 891.287 472.08C890.427 472.08 889.927 471.74 889.847 470.46H889.807C889.107 471.62 887.887 472.26 886.227 472.26ZM886.387 471.12C888.467 471.12 889.847 470.02 889.847 468.18V466.28C889.547 466.7 888.467 466.94 887.247 467.14C885.267 467.5 884.247 468 884.247 469.3C884.247 470.48 884.907 471.12 886.387 471.12ZM897.444 461.8V462.94H895.384V469.38C895.384 470.64 895.664 470.94 896.664 470.94C896.984 470.94 897.144 470.92 897.444 470.9V472C897.044 472.06 896.804 472.08 896.484 472.08C895.004 472.08 894.084 471.58 894.084 469.36V462.94H892.584V461.8H894.084V458.4H895.384V461.8H897.444ZM912.425 466.44C912.425 466.72 912.425 467 912.405 467.16H904.325C904.345 469.22 905.445 471.16 907.845 471.16C909.945 471.16 910.765 469.72 910.965 468.88H912.285C911.785 470.74 910.385 472.28 907.825 472.28C904.705 472.28 902.965 470 902.965 466.9C902.965 463.64 904.885 461.54 907.825 461.54C910.765 461.54 912.425 463.6 912.425 466.44ZM904.325 466.02H911.045C911.045 464.2 909.865 462.66 907.765 462.66C905.785 462.66 904.425 464.12 904.325 466.02ZM917.047 472.26C915.007 472.26 913.707 471.12 913.707 469.42C913.707 467.22 915.267 466.52 917.907 466.06C919.587 465.76 920.667 465.64 920.667 464.42C920.667 463.38 919.987 462.68 918.347 462.68C916.367 462.68 915.667 463.38 915.567 464.88H914.187C914.287 463.08 915.427 461.54 918.387 461.54C920.267 461.54 921.927 462.34 921.927 464.78V469.88C921.927 470.7 922.047 471.08 922.507 471.08C922.587 471.08 922.667 471.08 922.787 471.06V472C922.567 472.04 922.347 472.08 922.107 472.08C921.247 472.08 920.747 471.74 920.667 470.46H920.627C919.927 471.62 918.707 472.26 917.047 472.26ZM917.207 471.12C919.287 471.12 920.667 470.02 920.667 468.18V466.28C920.367 466.7 919.287 466.94 918.067 467.14C916.087 467.5 915.067 468 915.067 469.3C915.067 470.48 915.727 471.12 917.207 471.12ZM928.261 472.26C925.401 472.26 923.841 470.7 923.781 468.66H925.141C925.221 470.06 926.141 471.12 928.281 471.12C930.221 471.12 930.881 470.22 930.881 469.22C930.881 467.72 929.361 467.56 927.941 467.22C926.061 466.74 924.161 466.28 924.161 464.3C924.161 462.64 925.481 461.56 927.781 461.56C930.441 461.56 931.681 462.98 931.861 464.66H930.501C930.321 463.76 929.781 462.7 927.801 462.7C926.341 462.7 925.521 463.26 925.521 464.22C925.521 465.5 926.901 465.68 928.441 466.06C930.361 466.52 932.261 467.06 932.261 469.18C932.261 471.04 930.781 472.26 928.261 472.26ZM934.6 475.58C934.28 475.58 934.04 475.56 933.62 475.5V474.38C933.92 474.42 934.08 474.44 934.4 474.44C935.36 474.44 936.14 473.82 936.7 471.94L932.58 461.8H934.02L937.34 470.3H937.38L940.54 461.8H941.94L937.86 472.3C936.86 474.84 935.96 475.58 934.6 475.58ZM943.578 472H941.898V470.32H943.578V472Z" fill="#7F7F7F"/>
<path d="M77.04 92H68.272V69.12H76.976C83.312 69.12 87.152 73.216 87.152 80.576C87.152 87.936 83.376 92 77.04 92ZM71.792 88.96H76.816C82.128 88.96 83.504 84.992 83.504 80.576C83.504 76.16 82.128 72.16 76.816 72.16H71.792V88.96ZM93.2763 72.768H89.7243V69.376H93.2763V72.768ZM93.0523 92H89.9163V75.68H93.0523V92ZM100.893 92H97.7245V78.272H95.4845V75.68H97.7245V73.696C97.7245 69.92 99.2925 68.896 101.949 68.896C102.557 68.896 103.036 68.96 103.933 69.088V71.616C103.293 71.552 103.036 71.52 102.589 71.52C101.277 71.52 100.893 71.904 100.893 73.632V75.68H106.077V73.696C106.077 69.92 107.645 68.896 110.301 68.896C110.909 68.896 111.389 68.96 112.285 69.088V71.616C111.645 71.552 111.389 71.52 110.941 71.52C109.629 71.52 109.245 71.904 109.245 73.632V75.68H112.285V78.272H109.245V92H106.077V78.272H100.893V92ZM117.693 72.768H114.173V69.376H117.693V72.768ZM117.501 92H114.333V75.68H117.501V92ZM128.147 92.48C123.283 92.48 120.115 88.96 120.115 83.84C120.115 78.72 123.283 75.2 128.115 75.2C132.307 75.2 135.091 77.92 135.475 81.6H132.243C132.083 79.904 131.123 77.792 128.147 77.792C124.659 77.792 123.379 80.768 123.379 83.84C123.379 86.912 124.659 89.856 128.147 89.856C131.155 89.856 132.083 87.808 132.243 85.952H135.475C135.251 89.696 132.339 92.48 128.147 92.48ZM148.731 85.696V75.68H151.867V92H148.731V89.952H148.667C147.803 91.2 146.107 92.448 143.291 92.448C140.283 92.448 137.851 90.72 137.851 86.976V75.68H140.987V86.112C140.987 88.32 141.947 89.792 144.315 89.792C147.003 89.792 148.731 88.16 148.731 85.696ZM158.521 92H155.385V69.12H158.521V92ZM168.057 89.6C168.601 89.6 168.857 89.568 169.401 89.472V92C168.601 92.16 168.089 92.192 167.417 92.192C164.729 92.192 163.097 91.168 163.097 87.392V78.272H160.729V75.68H163.097V70.432H166.233V75.68H169.369V78.272H166.233V87.488C166.233 89.216 166.713 89.6 168.057 89.6ZM174.091 97.728C173.387 97.728 172.907 97.664 172.075 97.504V94.944C172.619 95.008 172.907 95.04 173.419 95.04C174.667 95.04 176.139 94.4 176.779 91.84L170.187 75.68H173.611L178.379 88.16H178.443L182.923 75.68H186.219L179.755 92.384C178.187 96.416 176.619 97.728 174.091 97.728ZM195.193 75.68V73.696C195.193 69.92 196.761 68.896 199.417 68.896C200.025 68.896 200.505 68.96 201.401 69.088V71.616C200.761 71.552 200.505 71.52 200.057 71.52C198.745 71.52 198.361 71.904 198.361 73.632V75.68H201.401V78.272H198.361V92H195.193V78.272H192.953V75.68H195.193ZM203.321 72.768V69.376H206.841V72.768H203.321ZM206.649 92H203.513V75.68H206.649V92ZM218.742 75.2C221.75 75.2 224.182 76.928 224.182 80.672V92H221.046V81.536C221.046 79.36 220.086 77.888 217.718 77.888C215.03 77.888 213.302 79.52 213.302 81.984V92H210.166V75.68H213.302V77.728H213.366C214.23 76.48 215.926 75.2 218.742 75.2ZM239.157 77.664V69.12H242.293V92H239.157V90.08H239.093C238.197 91.232 236.629 92.448 234.069 92.448C229.909 92.448 226.741 89.216 226.741 83.84C226.741 78.464 229.909 75.2 234.069 75.2C236.629 75.2 238.197 76.384 239.093 77.664H239.157ZM234.581 89.856C237.397 89.856 239.125 87.52 239.125 83.84C239.125 80.128 237.397 77.824 234.581 77.824C231.509 77.824 230.005 80.64 230.005 83.84C230.005 87.04 231.509 89.856 234.581 89.856ZM249.183 72.768H245.631V69.376H249.183V72.768ZM248.959 92H245.823V75.68H248.959V92ZM261.055 75.2C264.063 75.2 266.495 76.928 266.495 80.672V92H263.359V81.536C263.359 79.36 262.399 77.888 260.031 77.888C257.343 77.888 255.615 79.52 255.615 81.984V92H252.479V75.68H255.615V77.728H255.679C256.543 76.48 258.239 75.2 261.055 75.2ZM281.405 77.6V75.68H284.541V90.72C284.541 95.648 281.565 97.856 276.893 97.856C272.221 97.856 269.885 95.616 269.565 92.672H272.829C273.149 94.144 274.237 95.296 276.893 95.296C279.869 95.296 281.405 93.984 281.405 90.912V88.704H281.341C280.445 90.016 278.941 91.168 276.317 91.168C272.253 91.168 269.117 88.416 269.117 83.2C269.117 77.952 272.253 75.2 276.317 75.2C278.941 75.2 280.445 76.448 281.341 77.6H281.405ZM276.893 88.576C279.709 88.576 281.373 86.752 281.373 83.2C281.373 79.616 279.709 77.824 276.893 77.824C273.821 77.824 272.381 80.128 272.381 83.2C272.381 86.272 273.821 88.576 276.893 88.576ZM301.161 92.448C296.201 92.448 293.737 89.888 293.641 86.56H296.809C296.937 88.448 298.089 89.92 301.129 89.92C303.881 89.92 304.617 88.704 304.617 87.52C304.617 85.472 302.441 85.248 300.329 84.8C297.481 84.128 294.217 83.296 294.217 79.904C294.217 77.088 296.489 75.2 300.425 75.2C304.905 75.2 307.049 77.6 307.273 80.416H304.105C303.881 79.168 303.209 77.728 300.489 77.728C298.377 77.728 297.481 78.56 297.481 79.776C297.481 81.472 299.305 81.632 301.609 82.144C304.617 82.848 307.881 83.712 307.881 87.36C307.881 90.528 305.449 92.448 301.161 92.448ZM316.182 89.6C316.726 89.6 316.982 89.568 317.526 89.472V92C316.726 92.16 316.214 92.192 315.542 92.192C312.854 92.192 311.222 91.168 311.222 87.392V78.272H308.854V75.68H311.222V70.432H314.358V75.68H317.494V78.272H314.358V87.488C314.358 89.216 314.838 89.6 316.182 89.6ZM327.056 92.48C321.968 92.48 318.896 88.96 318.896 83.84C318.896 78.752 321.968 75.168 327.088 75.168C332.144 75.168 335.216 78.72 335.216 83.808C335.216 88.928 332.144 92.48 327.056 92.48ZM327.088 89.888C330.416 89.888 331.952 87.232 331.952 83.84C331.952 80.416 330.416 77.792 327.088 77.792C323.696 77.792 322.16 80.416 322.16 83.84C322.16 87.232 323.696 89.888 327.088 89.888ZM345.469 75.296C346.045 75.296 346.493 75.328 346.973 75.392V78.4C346.589 78.336 346.301 78.304 345.917 78.304C343.069 78.304 341.021 80.448 341.021 83.552V92H337.885V75.68H341.021V78.784H341.085C341.949 76.736 343.261 75.296 345.469 75.296ZM363.299 83.488C363.299 83.936 363.299 84.416 363.267 84.672H350.723C350.786 87.392 352.387 89.92 355.619 89.92C358.499 89.92 359.619 88.064 359.907 86.976H363.107C362.243 90.112 359.843 92.48 355.555 92.48C350.371 92.48 347.491 88.8 347.491 83.808C347.491 78.688 350.562 75.168 355.555 75.168C360.515 75.168 363.299 78.432 363.299 83.488ZM350.723 82.208H360.035C360.035 79.648 358.243 77.728 355.459 77.728C352.835 77.728 350.915 79.52 350.723 82.208ZM372.38 92.448C367.42 92.448 364.956 89.888 364.86 86.56H368.028C368.156 88.448 369.308 89.92 372.348 89.92C375.1 89.92 375.836 88.704 375.836 87.52C375.836 85.472 373.66 85.248 371.548 84.8C368.7 84.128 365.436 83.296 365.436 79.904C365.436 77.088 367.708 75.2 371.644 75.2C376.124 75.2 378.268 77.6 378.492 80.416H375.324C375.1 79.168 374.428 77.728 371.708 77.728C369.596 77.728 368.7 78.56 368.7 79.776C368.7 81.472 370.524 81.632 372.828 82.144C375.836 82.848 379.1 83.712 379.1 87.36C379.1 90.528 376.668 92.448 372.38 92.448ZM74.928 130.48C70.064 130.48 66.896 126.96 66.896 121.84C66.896 116.72 70.064 113.2 74.896 113.2C79.088 113.2 81.872 115.92 82.256 119.6H79.024C78.864 117.904 77.904 115.792 74.928 115.792C71.44 115.792 70.16 118.768 70.16 121.84C70.16 124.912 71.44 127.856 74.928 127.856C77.936 127.856 78.864 125.808 79.024 123.952H82.256C82.032 127.696 79.12 130.48 74.928 130.48ZM89.272 130.448C86.008 130.448 83.928 128.56 83.928 125.776C83.928 122.128 86.68 121.04 90.744 120.272C93.304 119.792 94.872 119.472 94.872 117.872C94.872 116.688 94.168 115.696 91.768 115.696C88.92 115.696 88.056 116.592 87.896 118.768H84.696C84.856 115.632 86.904 113.168 91.896 113.168C95.256 113.168 97.944 114.576 97.944 118.8V126.288C97.944 127.472 98.104 128.08 98.712 128.08C98.808 128.08 98.904 128.08 99.096 128.048V129.968C98.552 130.096 98.008 130.16 97.496 130.16C95.928 130.16 95.096 129.552 94.904 127.696H94.84C93.784 129.392 91.928 130.448 89.272 130.448ZM89.976 127.92C92.792 127.92 94.872 126.48 94.872 123.632V121.296C94.36 121.776 92.952 122.128 91.288 122.48C88.408 123.056 87.192 123.856 87.192 125.552C87.192 127.088 88.024 127.92 89.976 127.92ZM109.344 113.296C109.92 113.296 110.368 113.328 110.848 113.392V116.4C110.464 116.336 110.176 116.304 109.792 116.304C106.944 116.304 104.896 118.448 104.896 121.552V130H101.76V113.68H104.896V116.784H104.96C105.824 114.736 107.136 113.296 109.344 113.296ZM120.469 113.296C121.045 113.296 121.493 113.328 121.973 113.392V116.4C121.589 116.336 121.301 116.304 120.917 116.304C118.069 116.304 116.021 118.448 116.021 121.552V130H112.885V113.68H116.021V116.784H116.085C116.949 114.736 118.261 113.296 120.469 113.296ZM126.185 135.728C125.481 135.728 125.001 135.664 124.169 135.504V132.944C124.713 133.008 125.001 133.04 125.513 133.04C126.761 133.04 128.233 132.4 128.873 129.84L122.28 113.68H125.705L130.473 126.16H130.536L135.017 113.68H138.312L131.849 130.384C130.281 134.416 128.713 135.728 126.185 135.728ZM143.589 110.768H140.037V107.376H143.589V110.768ZM143.365 130H140.229V113.68H143.365V130ZM155.461 113.2C158.469 113.2 160.901 114.928 160.901 118.672V130H157.765V119.536C157.765 117.36 156.805 115.888 154.437 115.888C151.749 115.888 150.021 117.52 150.021 119.984V130H146.885V113.68H150.021V115.728H150.085C150.949 114.48 152.645 113.2 155.461 113.2ZM175.811 115.6V113.68H178.947V128.72C178.947 133.648 175.971 135.856 171.299 135.856C166.627 135.856 164.291 133.616 163.971 130.672H167.235C167.555 132.144 168.643 133.296 171.299 133.296C174.275 133.296 175.811 131.984 175.811 128.912V126.704H175.747C174.851 128.016 173.347 129.168 170.723 129.168C166.659 129.168 163.523 126.416 163.523 121.2C163.523 115.952 166.659 113.2 170.723 113.2C173.347 113.2 174.851 114.448 175.747 115.6H175.811ZM171.299 126.576C174.115 126.576 175.779 124.752 175.779 121.2C175.779 117.616 174.115 115.824 171.299 115.824C168.227 115.824 166.787 118.128 166.787 121.2C166.787 124.272 168.227 126.576 171.299 126.576ZM193.647 130.448C190.383 130.448 188.303 128.56 188.303 125.776C188.303 122.128 191.055 121.04 195.119 120.272C197.679 119.792 199.247 119.472 199.247 117.872C199.247 116.688 198.543 115.696 196.143 115.696C193.295 115.696 192.431 116.592 192.271 118.768H189.071C189.231 115.632 191.279 113.168 196.271 113.168C199.631 113.168 202.319 114.576 202.319 118.8V126.288C202.319 127.472 202.479 128.08 203.087 128.08C203.183 128.08 203.279 128.08 203.471 128.048V129.968C202.927 130.096 202.383 130.16 201.871 130.16C200.303 130.16 199.471 129.552 199.279 127.696H199.215C198.159 129.392 196.303 130.448 193.647 130.448ZM194.351 127.92C197.167 127.92 199.247 126.48 199.247 123.632V121.296C198.735 121.776 197.327 122.128 195.663 122.48C192.783 123.056 191.567 123.856 191.567 125.552C191.567 127.088 192.399 127.92 194.351 127.92ZM219.991 130.48C215.127 130.48 211.959 126.96 211.959 121.84C211.959 116.72 215.127 113.2 219.959 113.2C224.151 113.2 226.935 115.92 227.319 119.6H224.087C223.927 117.904 222.967 115.792 219.991 115.792C216.503 115.792 215.223 118.768 215.223 121.84C215.223 124.912 216.503 127.856 219.991 127.856C222.999 127.856 223.927 125.808 224.087 123.952H227.319C227.095 127.696 224.183 130.48 219.991 130.48ZM244.799 121.488C244.799 121.936 244.799 122.416 244.767 122.672H232.223C232.286 125.392 233.887 127.92 237.119 127.92C239.999 127.92 241.119 126.064 241.407 124.976H244.607C243.743 128.112 241.343 130.48 237.055 130.48C231.871 130.48 228.991 126.8 228.991 121.808C228.991 116.688 232.062 113.168 237.055 113.168C242.015 113.168 244.799 116.432 244.799 121.488ZM232.223 120.208H241.535C241.535 117.648 239.743 115.728 236.959 115.728C234.335 115.728 232.415 117.52 232.223 120.208ZM255.032 113.296C255.608 113.296 256.056 113.328 256.536 113.392V116.4C256.152 116.336 255.864 116.304 255.48 116.304C252.632 116.304 250.584 118.448 250.584 121.552V130H247.448V113.68H250.584V116.784H250.648C251.512 114.736 252.824 113.296 255.032 113.296ZM264.589 127.6C265.133 127.6 265.389 127.568 265.933 127.472V130C265.133 130.16 264.621 130.192 263.949 130.192C261.261 130.192 259.629 129.168 259.629 125.392V116.272H257.261V113.68H259.629V108.432H262.765V113.68H265.901V116.272H262.765V125.488C262.765 127.216 263.245 127.6 264.589 127.6ZM273.022 130.448C269.758 130.448 267.678 128.56 267.678 125.776C267.678 122.128 270.43 121.04 274.494 120.272C277.054 119.792 278.622 119.472 278.622 117.872C278.622 116.688 277.918 115.696 275.518 115.696C272.67 115.696 271.806 116.592 271.646 118.768H268.446C268.606 115.632 270.654 113.168 275.646 113.168C279.006 113.168 281.694 114.576 281.694 118.8V126.288C281.694 127.472 281.854 128.08 282.462 128.08C282.558 128.08 282.654 128.08 282.846 128.048V129.968C282.302 130.096 281.758 130.16 281.246 130.16C279.678 130.16 278.846 129.552 278.654 127.696H278.59C277.534 129.392 275.678 130.448 273.022 130.448ZM273.726 127.92C276.542 127.92 278.622 126.48 278.622 123.632V121.296C278.11 121.776 276.702 122.128 275.038 122.48C272.158 123.056 270.942 123.856 270.942 125.552C270.942 127.088 271.774 127.92 273.726 127.92ZM288.87 110.768H285.318V107.376H288.87V110.768ZM288.646 130H285.51V113.68H288.646V130ZM300.742 113.2C303.75 113.2 306.182 114.928 306.182 118.672V130H303.046V119.536C303.046 117.36 302.086 115.888 299.718 115.888C297.03 115.888 295.302 117.52 295.302 119.984V130H292.166V113.68H295.302V115.728H295.366C296.23 114.48 297.926 113.2 300.742 113.2ZM324.484 113.2C328.644 113.2 331.812 116.464 331.812 121.84C331.812 127.216 328.644 130.448 324.484 130.448C321.924 130.448 320.356 129.296 319.46 127.984H319.396V135.664H316.26V113.68H319.396V115.6H319.46C320.356 114.448 321.924 113.2 324.484 113.2ZM323.972 127.856C327.044 127.856 328.516 125.04 328.516 121.84C328.516 118.64 327.044 115.824 323.972 115.824C321.156 115.824 319.428 118.128 319.428 121.84C319.428 125.52 321.156 127.856 323.972 127.856ZM342.094 113.296C342.67 113.296 343.118 113.328 343.598 113.392V116.4C343.214 116.336 342.926 116.304 342.542 116.304C339.694 116.304 337.646 118.448 337.646 121.552V130H334.51V113.68H337.646V116.784H337.71C338.574 114.736 339.886 113.296 342.094 113.296ZM352.244 130.48C347.156 130.48 344.084 126.96 344.084 121.84C344.084 116.752 347.156 113.168 352.276 113.168C357.332 113.168 360.404 116.72 360.404 121.808C360.404 126.928 357.332 130.48 352.244 130.48ZM352.276 127.888C355.604 127.888 357.14 125.232 357.14 121.84C357.14 118.416 355.604 115.792 352.276 115.792C348.884 115.792 347.348 118.416 347.348 121.84C347.348 125.232 348.884 127.888 352.276 127.888ZM374.657 115.664V107.12H377.793V130H374.657V128.08H374.593C373.697 129.232 372.129 130.448 369.569 130.448C365.409 130.448 362.241 127.216 362.241 121.84C362.241 116.464 365.409 113.2 369.569 113.2C372.129 113.2 373.697 114.384 374.593 115.664H374.657ZM370.081 127.856C372.897 127.856 374.625 125.52 374.625 121.84C374.625 118.128 372.897 115.824 370.081 115.824C367.009 115.824 365.505 118.64 365.505 121.84C365.505 125.04 367.009 127.856 370.081 127.856ZM392.075 123.696V113.68H395.211V130H392.075V127.952H392.011C391.147 129.2 389.451 130.448 386.635 130.448C383.627 130.448 381.195 128.72 381.195 124.976V113.68H384.331V124.112C384.331 126.32 385.291 127.792 387.659 127.792C390.347 127.792 392.075 126.16 392.075 123.696ZM405.897 130.48C401.033 130.48 397.865 126.96 397.865 121.84C397.865 116.72 401.033 113.2 405.865 113.2C410.057 113.2 412.841 115.92 413.225 119.6H409.993C409.833 117.904 408.873 115.792 405.897 115.792C402.409 115.792 401.129 118.768 401.129 121.84C401.129 124.912 402.409 127.856 405.897 127.856C408.905 127.856 409.833 125.808 409.993 123.952H413.225C413.001 127.696 410.089 130.48 405.897 130.48ZM421.62 127.6C422.164 127.6 422.42 127.568 422.964 127.472V130C422.164 130.16 421.652 130.192 420.98 130.192C418.292 130.192 416.66 129.168 416.66 125.392V116.272H414.292V113.68H416.66V108.432H419.796V113.68H422.932V116.272H419.796V125.488C419.796 127.216 420.276 127.6 421.62 127.6ZM428.709 130H425.221V126.512H428.709V130Z" fill="black"/>
<path d="M68.98 173H67.52V158.7H73.12C76.16 158.7 77.82 160.12 77.82 162.74C77.82 164.64 76.72 165.94 75.16 166.34V166.38C78.44 167.04 77.3 172.64 78.08 172.88V173H76.52C75.86 172.4 77.16 167.06 73.34 167.06H68.98V173ZM68.98 165.78H72.76C75.04 165.78 76.36 164.76 76.36 162.76C76.36 160.94 75.32 159.98 72.86 159.98H68.98V165.78ZM88.7567 167.44C88.7567 167.72 88.7567 168 88.7367 168.16H80.6567C80.6767 170.22 81.7767 172.16 84.1767 172.16C86.2767 172.16 87.0967 170.72 87.2967 169.88H88.6167C88.1167 171.74 86.7167 173.28 84.1567 173.28C81.0367 173.28 79.2967 171 79.2967 167.9C79.2967 164.64 81.2167 162.54 84.1567 162.54C87.0967 162.54 88.7567 164.6 88.7567 167.44ZM80.6567 167.02H87.3767C87.3767 165.2 86.1967 163.66 84.0967 163.66C82.1167 163.66 80.7567 165.12 80.6567 167.02ZM94.3389 173.26C91.4789 173.26 89.9189 171.7 89.8589 169.66H91.2189C91.2989 171.06 92.2189 172.12 94.3589 172.12C96.2989 172.12 96.9589 171.22 96.9589 170.22C96.9589 168.72 95.4389 168.56 94.0189 168.22C92.1389 167.74 90.2389 167.28 90.2389 165.3C90.2389 163.64 91.5589 162.56 93.8589 162.56C96.5189 162.56 97.7589 163.98 97.9389 165.66H96.5789C96.3989 164.76 95.8589 163.7 93.8789 163.7C92.4189 163.7 91.5989 164.26 91.5989 165.22C91.5989 166.5 92.9789 166.68 94.5189 167.06C96.4389 167.52 98.3389 168.06 98.3389 170.18C98.3389 172.04 96.8589 173.26 94.3389 173.26ZM106.813 169.24V162.8H108.113V173H106.813V171.56H106.773C106.193 172.4 105.093 173.24 103.273 173.24C101.452 173.24 99.9325 172.22 99.9325 169.96V162.8H101.233V169.68C101.233 170.98 101.833 172.1 103.593 172.1C105.533 172.1 106.813 170.74 106.813 169.24ZM111.82 173H110.52V158.7H111.82V173ZM118.132 162.8V163.94H116.072V170.38C116.072 171.64 116.352 171.94 117.352 171.94C117.672 171.94 117.832 171.92 118.132 171.9V173C117.732 173.06 117.492 173.08 117.172 173.08C115.692 173.08 114.772 172.58 114.772 170.36V163.94H113.272V162.8H114.772V159.4H116.072V162.8H118.132ZM123.577 173.26C120.717 173.26 119.157 171.7 119.097 169.66H120.457C120.537 171.06 121.457 172.12 123.597 172.12C125.537 172.12 126.197 171.22 126.197 170.22C126.197 168.72 124.677 168.56 123.257 168.22C121.377 167.74 119.477 167.28 119.477 165.3C119.477 163.64 120.797 162.56 123.097 162.56C125.757 162.56 126.997 163.98 127.177 165.66H125.817C125.637 164.76 125.097 163.7 123.117 163.7C121.657 163.7 120.837 164.26 120.837 165.22C120.837 166.5 122.217 166.68 123.757 167.06C125.677 167.52 127.577 168.06 127.577 170.18C127.577 172.04 126.097 173.26 123.577 173.26ZM136.766 159.72C135.786 159.72 135.546 160.02 135.546 161.28V162.8H137.566V163.94H135.546V173H134.246V163.94H132.806V162.8H134.246V161.3C134.246 159.08 135.126 158.58 136.586 158.58C136.866 158.58 137.106 158.6 137.566 158.66V159.76C137.206 159.74 137.046 159.72 136.766 159.72ZM143.1 162.56C143.46 162.56 143.74 162.58 143.98 162.62V163.9C143.78 163.86 143.56 163.84 143.36 163.84C141.52 163.84 140.16 165.32 140.16 167.3V173H138.86V162.8H140.16V164.88H140.2C140.72 163.54 141.66 162.56 143.1 162.56ZM149.138 173.28C146.078 173.28 144.238 171.08 144.238 167.92C144.238 164.74 146.078 162.54 149.138 162.54C152.198 162.54 154.038 164.74 154.038 167.92C154.038 171.08 152.198 173.28 149.138 173.28ZM149.138 172.14C151.518 172.14 152.678 170.26 152.678 167.92C152.678 165.56 151.518 163.68 149.138 163.68C146.758 163.68 145.598 165.56 145.598 167.92C145.598 170.26 146.758 172.14 149.138 172.14ZM166.472 162.56C168.412 162.56 169.472 163.72 169.472 165.84V173H168.172V166.12C168.172 164.84 167.872 163.7 166.192 163.7C164.392 163.7 163.332 165.08 163.332 166.56V173H162.032V166.12C162.032 164.84 161.732 163.7 160.032 163.7C158.252 163.7 157.172 165.08 157.172 166.56V173H155.872V162.8H157.172V164.24H157.212C157.752 163.42 158.712 162.56 160.312 162.56C161.752 162.56 162.672 163.22 163.052 164.44H163.092C163.752 163.42 164.852 162.56 166.472 162.56ZM181.325 173.32C178.165 173.32 175.605 171.88 175.605 169.04C175.605 167.18 176.885 166.14 178.205 165.56V165.52C177.225 165 176.205 164.16 176.205 162.6C176.205 160.22 178.485 158.86 181.325 158.86C184.165 158.86 186.445 160.22 186.445 162.6C186.445 164.16 185.405 165 184.445 165.52V165.56C185.745 166.14 187.045 167.18 187.045 169.04C187.045 171.88 184.485 173.32 181.325 173.32ZM181.325 164.62C182.725 164.62 183.365 163.84 183.365 162.9C183.365 162 182.725 161.2 181.325 161.2C179.925 161.2 179.285 162 179.285 162.9C179.285 163.84 179.925 164.62 181.325 164.62ZM181.325 170.78C182.785 170.78 183.565 169.84 183.565 168.72C183.565 167.64 182.785 166.7 181.325 166.7C179.865 166.7 179.085 167.64 179.085 168.72C179.085 169.84 179.865 170.78 181.325 170.78ZM190.88 173V163.72C190.34 164.14 189.18 164.3 187.96 164.3V161.64C189.9 161.64 191.48 160.88 191.48 159.18H194.28V173H190.88ZM204.266 159.72C203.286 159.72 203.046 160.02 203.046 161.28V162.8H205.066V163.94H203.046V173H201.746V163.94H200.306V162.8H201.746V161.3C201.746 159.08 202.626 158.58 204.086 158.58C204.366 158.58 204.606 158.6 205.066 158.66V159.76C204.706 159.74 204.546 159.72 204.266 159.72ZM208.965 173.26C206.925 173.26 205.625 172.12 205.625 170.42C205.625 168.22 207.185 167.52 209.825 167.06C211.505 166.76 212.585 166.64 212.585 165.42C212.585 164.38 211.905 163.68 210.265 163.68C208.285 163.68 207.585 164.38 207.485 165.88H206.105C206.205 164.08 207.345 162.54 210.305 162.54C212.185 162.54 213.845 163.34 213.845 165.78V170.88C213.845 171.7 213.965 172.08 214.425 172.08C214.505 172.08 214.585 172.08 214.705 172.06V173C214.485 173.04 214.265 173.08 214.025 173.08C213.165 173.08 212.665 172.74 212.585 171.46H212.545C211.845 172.62 210.625 173.26 208.965 173.26ZM209.125 172.12C211.205 172.12 212.585 171.02 212.585 169.18V167.28C212.285 167.7 211.205 167.94 209.985 168.14C208.005 168.5 206.985 169 206.985 170.3C206.985 171.48 207.645 172.12 209.125 172.12ZM220.179 173.26C217.319 173.26 215.759 171.7 215.699 169.66H217.059C217.139 171.06 218.059 172.12 220.199 172.12C222.139 172.12 222.799 171.22 222.799 170.22C222.799 168.72 221.279 168.56 219.859 168.22C217.979 167.74 216.079 167.28 216.079 165.3C216.079 163.64 217.399 162.56 219.699 162.56C222.359 162.56 223.599 163.98 223.779 165.66H222.419C222.239 164.76 221.699 163.7 219.719 163.7C218.259 163.7 217.439 164.26 217.439 165.22C217.439 166.5 218.819 166.68 220.359 167.06C222.279 167.52 224.179 168.06 224.179 170.18C224.179 172.04 222.699 173.26 220.179 173.26ZM230.692 162.56C232.512 162.56 234.032 163.58 234.032 165.84V173H232.732V166.12C232.732 164.82 232.132 163.7 230.372 163.7C228.432 163.7 227.152 165.06 227.152 166.56V173H225.852V158.7H227.152V164.26H227.192C227.772 163.42 228.872 162.56 230.692 162.56ZM237.84 160.76H236.16V159.08H237.84V160.76ZM237.66 173H236.36V162.8H237.66V173ZM244.392 173.28C241.332 173.28 239.492 171.08 239.492 167.92C239.492 164.74 241.332 162.54 244.392 162.54C247.452 162.54 249.292 164.74 249.292 167.92C249.292 171.08 247.452 173.28 244.392 173.28ZM244.392 172.14C246.772 172.14 247.932 170.26 247.932 167.92C247.932 165.56 246.772 163.68 244.392 163.68C242.012 163.68 240.852 165.56 240.852 167.92C240.852 170.26 242.012 172.14 244.392 172.14ZM255.966 162.56C257.786 162.56 259.306 163.58 259.306 165.84V173H258.006V166.12C258.006 164.82 257.406 163.7 255.646 163.7C253.706 163.7 252.426 165.06 252.426 166.56V173H251.126V162.8H252.426V164.26H252.466C253.046 163.42 254.146 162.56 255.966 162.56ZM266.614 168.54H261.254V167.26H266.614V168.54ZM271.531 159.72C270.551 159.72 270.311 160.02 270.311 161.28V162.8H272.331V163.94H270.311V173H269.011V163.94H267.571V162.8H269.011V161.3C269.011 159.08 269.891 158.58 271.351 158.58C271.631 158.58 271.871 158.6 272.331 158.66V159.76C271.971 159.74 271.811 159.72 271.531 159.72ZM277.712 173.28C274.652 173.28 272.812 171.08 272.812 167.92C272.812 164.74 274.652 162.54 277.712 162.54C280.772 162.54 282.612 164.74 282.612 167.92C282.612 171.08 280.772 173.28 277.712 173.28ZM277.712 172.14C280.092 172.14 281.252 170.26 281.252 167.92C281.252 165.56 280.092 163.68 277.712 163.68C275.332 163.68 274.172 165.56 274.172 167.92C274.172 170.26 275.332 172.14 277.712 172.14ZM288.766 173.26C285.846 173.26 283.886 171.1 283.886 167.9C283.886 164.72 285.846 162.56 288.766 162.56C291.246 162.56 292.926 164.22 293.146 166.38H291.786C291.706 165.24 290.886 163.7 288.766 163.7C286.266 163.7 285.246 165.82 285.246 167.9C285.246 170 286.266 172.14 288.766 172.14C290.906 172.14 291.706 170.6 291.786 169.36H293.146C293.006 171.56 291.246 173.26 288.766 173.26ZM301.695 169.24V162.8H302.995V173H301.695V171.56H301.655C301.075 172.4 299.975 173.24 298.155 173.24C296.335 173.24 294.815 172.22 294.815 169.96V162.8H296.115V169.68C296.115 170.98 296.715 172.1 298.475 172.1C300.415 172.1 301.695 170.74 301.695 169.24ZM309.163 173.26C306.303 173.26 304.743 171.7 304.683 169.66H306.043C306.123 171.06 307.043 172.12 309.183 172.12C311.123 172.12 311.783 171.22 311.783 170.22C311.783 168.72 310.263 168.56 308.843 168.22C306.963 167.74 305.063 167.28 305.063 165.3C305.063 163.64 306.383 162.56 308.683 162.56C311.343 162.56 312.583 163.98 312.763 165.66H311.403C311.223 164.76 310.683 163.7 308.703 163.7C307.243 163.7 306.423 164.26 306.423 165.22C306.423 166.5 307.803 166.68 309.343 167.06C311.263 167.52 313.163 168.06 313.163 170.18C313.163 172.04 311.683 173.26 309.163 173.26ZM323.757 167.44C323.757 167.72 323.757 168 323.737 168.16H315.657C315.677 170.22 316.777 172.16 319.177 172.16C321.277 172.16 322.097 170.72 322.297 169.88H323.617C323.117 171.74 321.717 173.28 319.157 173.28C316.037 173.28 314.297 171 314.297 167.9C314.297 164.64 316.217 162.54 319.157 162.54C322.097 162.54 323.757 164.6 323.757 167.44ZM315.657 167.02H322.377C322.377 165.2 321.197 163.66 319.097 163.66C317.117 163.66 315.757 165.12 315.657 167.02ZM332.999 164.52V158.7H334.299V173H332.999V171.34H332.959C332.379 172.34 331.299 173.26 329.519 173.26C327.039 173.26 325.039 171.26 325.039 167.9C325.039 164.56 327.039 162.56 329.519 162.56C331.299 162.56 332.359 163.44 332.959 164.52H332.999ZM329.679 172.12C331.639 172.12 332.999 170.48 332.999 167.9C332.999 165.34 331.639 163.7 329.679 163.7C327.559 163.7 326.399 165.62 326.399 167.9C326.399 170.2 327.559 172.12 329.679 172.12ZM345.867 162.54C348.367 162.54 350.367 164.54 350.367 167.9C350.367 171.24 348.367 173.24 345.867 173.24C344.087 173.24 343.027 172.36 342.427 171.28H342.387V176.54H341.087V162.8H342.387V164.44H342.427C343.027 163.46 344.087 162.54 345.867 162.54ZM345.727 172.1C347.847 172.1 349.007 170.18 349.007 167.9C349.007 165.6 347.847 163.68 345.727 163.68C343.767 163.68 342.387 165.32 342.387 167.9C342.387 170.46 343.767 172.1 345.727 172.1ZM355.02 173.26C352.98 173.26 351.68 172.12 351.68 170.42C351.68 168.22 353.24 167.52 355.88 167.06C357.56 166.76 358.64 166.64 358.64 165.42C358.64 164.38 357.96 163.68 356.32 163.68C354.34 163.68 353.64 164.38 353.54 165.88H352.16C352.26 164.08 353.4 162.54 356.36 162.54C358.24 162.54 359.9 163.34 359.9 165.78V170.88C359.9 171.7 360.02 172.08 360.48 172.08C360.56 172.08 360.64 172.08 360.76 172.06V173C360.54 173.04 360.32 173.08 360.08 173.08C359.22 173.08 358.72 172.74 358.64 171.46H358.6C357.9 172.62 356.68 173.26 355.02 173.26ZM355.18 172.12C357.26 172.12 358.64 171.02 358.64 169.18V167.28C358.34 167.7 357.26 167.94 356.04 168.14C354.06 168.5 353.04 169 353.04 170.3C353.04 171.48 353.7 172.12 355.18 172.12ZM366.733 162.56C367.093 162.56 367.373 162.58 367.613 162.62V163.9C367.413 163.86 367.193 163.84 366.993 163.84C365.153 163.84 363.793 165.32 363.793 167.3V173H362.493V162.8H363.793V164.88H363.833C364.353 163.54 365.293 162.56 366.733 162.56ZM372.917 162.8V163.94H370.857V170.38C370.857 171.64 371.137 171.94 372.137 171.94C372.457 171.94 372.617 171.92 372.917 171.9V173C372.517 173.06 372.277 173.08 371.957 173.08C370.477 173.08 369.557 172.58 369.557 170.36V163.94H368.057V162.8H369.557V159.4H370.857V162.8H372.917ZM376.082 160.76H374.402V159.08H376.082V160.76ZM375.902 173H374.602V162.8H375.902V173ZM382.614 173.26C379.694 173.26 377.734 171.1 377.734 167.9C377.734 164.72 379.694 162.56 382.614 162.56C385.094 162.56 386.774 164.22 386.994 166.38H385.634C385.554 165.24 384.734 163.7 382.614 163.7C380.114 163.7 379.094 165.82 379.094 167.9C379.094 170 380.114 172.14 382.614 172.14C384.754 172.14 385.554 170.6 385.634 169.36H386.994C386.854 171.56 385.094 173.26 382.614 173.26ZM390.223 160.76H388.543V159.08H390.223V160.76ZM390.043 173H388.743V162.8H390.043V173ZM397.214 162.54C399.714 162.54 401.714 164.54 401.714 167.9C401.714 171.24 399.714 173.24 397.214 173.24C395.434 173.24 394.374 172.36 393.774 171.28H393.734V176.54H392.434V162.8H393.734V164.44H393.774C394.374 163.46 395.434 162.54 397.214 162.54ZM397.074 172.1C399.194 172.1 400.354 170.18 400.354 167.9C400.354 165.6 399.194 163.68 397.074 163.68C395.114 163.68 393.734 165.32 393.734 167.9C393.734 170.46 395.114 172.1 397.074 172.1ZM406.367 173.26C404.327 173.26 403.027 172.12 403.027 170.42C403.027 168.22 404.587 167.52 407.227 167.06C408.907 166.76 409.987 166.64 409.987 165.42C409.987 164.38 409.307 163.68 407.667 163.68C405.687 163.68 404.987 164.38 404.887 165.88H403.507C403.607 164.08 404.747 162.54 407.707 162.54C409.587 162.54 411.247 163.34 411.247 165.78V170.88C411.247 171.7 411.367 172.08 411.827 172.08C411.907 172.08 411.987 172.08 412.107 172.06V173C411.887 173.04 411.667 173.08 411.427 173.08C410.567 173.08 410.067 172.74 409.987 171.46H409.947C409.247 172.62 408.027 173.26 406.367 173.26ZM406.527 172.12C408.607 172.12 409.987 171.02 409.987 169.18V167.28C409.687 167.7 408.607 167.94 407.387 168.14C405.407 168.5 404.387 169 404.387 170.3C404.387 171.48 405.047 172.12 406.527 172.12ZM418.681 162.56C420.501 162.56 422.021 163.58 422.021 165.84V173H420.721V166.12C420.721 164.82 420.121 163.7 418.361 163.7C416.421 163.7 415.141 165.06 415.141 166.56V173H413.841V162.8H415.141V164.26H415.181C415.761 163.42 416.861 162.56 418.681 162.56ZM428.171 162.8V163.94H426.111V170.38C426.111 171.64 426.391 171.94 427.391 171.94C427.711 171.94 427.871 171.92 428.171 171.9V173C427.771 173.06 427.531 173.08 427.211 173.08C425.731 173.08 424.811 172.58 424.811 170.36V163.94H423.311V162.8H424.811V159.4H426.111V162.8H428.171ZM433.616 173.26C430.756 173.26 429.196 171.7 429.136 169.66H430.496C430.576 171.06 431.496 172.12 433.636 172.12C435.576 172.12 436.236 171.22 436.236 170.22C436.236 168.72 434.716 168.56 433.296 168.22C431.416 167.74 429.516 167.28 429.516 165.3C429.516 163.64 430.836 162.56 433.136 162.56C435.796 162.56 437.036 163.98 437.216 165.66H435.856C435.676 164.76 435.136 163.7 433.156 163.7C431.696 163.7 430.876 164.26 430.876 165.22C430.876 166.5 432.256 166.68 433.796 167.06C435.716 167.52 437.616 168.06 437.616 170.18C437.616 172.04 436.136 173.26 433.616 173.26ZM440.75 173H439.07V171.32H440.75V173Z" fill="#7F7F7F"/>
</svg>
